<?xml version="1.0" encoding="utf-8"?>
<!-- Generator: Adobe Illustrator 24.3.0, SVG Export Plug-In . SVG Version: 6.00 Build 0)  -->
<svg version="1.1" id="Capa_1" xmlns="http://www.w3.org/2000/svg" xmlns:xlink="http://www.w3.org/1999/xlink" x="0px" y="0px"
	 viewBox="0 0 1200 1200" style="enable-background:new 0 0 1200 1200;" xml:space="preserve">
<style type="text/css">
	.st0{fill:#FFFFFF;}
</style>
<g>
	<g>
		<g>
			<path class="st0" d="M307.18,203.47c-0.76,1.46-0.72,3.29,0.26,4.75c0.45,0.67,1.05,1.18,1.72,1.53l143.07,83.16l0.33,0.18
				c1.5,0.81,3.39,0.76,4.87-0.3c0.47-0.34,0.86-0.74,1.16-1.19c0.15-0.22,0.28-0.45,0.38-0.69c13.2-23.38,31.58-44.29,54.94-60.82
				c23.44-16.59,49.39-27,75.92-31.64c0.19-0.01,0.38-0.05,0.56-0.09c0.58-0.13,1.13-0.38,1.63-0.72c1.5-1.07,2.17-2.85,1.9-4.53
				l-0.06-0.32L563.58,30.11l-0.06-0.28c-0.13-0.66-0.4-1.29-0.82-1.84c-1.03-1.39-2.67-2.03-4.26-1.85
				c-0.14,0.02-0.26,0.05-0.39,0.08l0.01-0.01c-50.57,9.15-100.57,29.33-145.28,60.98c-44.73,31.66-80.12,71.6-105.57,116.27"/>
			<path class="st0" d="M225.49,517.75c0.66,1.51,2.11,2.62,3.86,2.77c0.81,0.07,1.58-0.08,2.27-0.38l154.41-59.51l0.34-0.14
				c1.57-0.66,2.71-2.18,2.82-3.99c0.03-0.57-0.04-1.13-0.21-1.64c-0.07-0.26-0.18-0.5-0.3-0.73
				c-9.97-24.93-14.77-52.35-13.04-80.92c1.73-28.67,9.87-55.42,22.86-79.01c0.11-0.16,0.2-0.32,0.28-0.49
				c0.26-0.53,0.41-1.12,0.46-1.72c0.1-1.84-0.87-3.47-2.35-4.32l-0.29-0.15l-145.8-78.24l-0.25-0.13c-0.6-0.32-1.26-0.5-1.96-0.51
				c-1.72-0.06-3.25,0.81-4.1,2.17c-0.08,0.12-0.13,0.23-0.19,0.35l0.01-0.01c-24.52,45.16-40.09,96.79-43.4,151.47
				c-3.31,54.7,5.68,107.3,24.57,155.11"/>
			<path class="st0" d="M421.73,776.02c1.59,0.42,3.36-0.03,4.57-1.31c0.55-0.58,0.92-1.28,1.11-2.01l49.23-157.98l0.1-0.36
				c0.46-1.65-0.02-3.47-1.37-4.68c-0.44-0.38-0.91-0.68-1.42-0.87c-0.25-0.1-0.5-0.17-0.76-0.22
				c-25.73-7.65-50.21-20.93-71.53-40.03c-21.39-19.16-37.31-42.15-47.73-66.98c-0.05-0.18-0.13-0.36-0.22-0.52
				c-0.26-0.53-0.62-1.02-1.07-1.43c-1.38-1.23-3.25-1.49-4.84-0.85l-0.3,0.13l-151.85,65.71l-0.26,0.11
				c-0.62,0.27-1.17,0.68-1.62,1.22c-1.11,1.31-1.37,3.05-0.84,4.57c0.05,0.13,0.11,0.24,0.16,0.37l-0.01-0.01
				c20.17,47.26,50.98,91.52,91.78,128.08c40.82,36.57,87.63,62.17,136.84,77.05"/>
			<path class="st0" d="M744.39,783.71c1.32-0.97,2.08-2.65,1.83-4.38c-0.1-0.8-0.42-1.52-0.87-2.13l-92.23-137.39l-0.22-0.3
				c-1-1.39-2.72-2.17-4.51-1.87c-0.56,0.1-1.09,0.28-1.56,0.56c-0.23,0.13-0.46,0.29-0.64,0.45
				c-22.1,15.25-47.79,25.99-76.04,30.64c-28.34,4.65-56.22,2.66-82.11-4.79c-0.17-0.07-0.36-0.13-0.54-0.17
				c-0.57-0.13-1.18-0.15-1.77-0.07c-1.82,0.31-3.2,1.62-3.69,3.25l-0.09,0.32l-44,159.51l-0.07,0.28
				c-0.17,0.65-0.21,1.32-0.07,2.02c0.33,1.69,1.52,2.99,3.04,3.52c0.13,0.05,0.25,0.07,0.39,0.1h-0.02
				c49.47,13.91,103.27,17.66,157.32,8.77c54.08-8.88,103.37-29.3,145.81-58.32"/>
			<path class="st0" d="M954.46,537.27c0.05-1.64-0.78-3.27-2.3-4.16c-0.69-0.41-1.45-0.61-2.21-0.64L784.98,519.6l-0.37-0.01
				c-1.71-0.09-3.38,0.78-4.26,2.38c-0.27,0.5-0.45,1.03-0.52,1.56c-0.04,0.26-0.06,0.53-0.05,0.79
				c-1.75,26.78-9.24,53.6-23.11,78.64c-13.93,25.12-32.8,45.75-54.69,61.44c-0.17,0.09-0.32,0.21-0.46,0.33
				c-0.46,0.37-0.86,0.82-1.15,1.35c-0.89,1.62-0.72,3.5,0.26,4.9l0.19,0.27l97.84,133.44l0.17,0.22c0.4,0.54,0.92,1,1.55,1.31
				c1.53,0.8,3.29,0.65,4.65-0.19c0.11-0.07,0.21-0.15,0.32-0.23l-0.01,0.01c41.59-30.18,77.89-70.05,104.45-117.96
				c26.57-47.93,41.12-99.26,44.69-150.55"/>
			<path class="st0" d="M892.09,218.9c-1.26-1.08-3.04-1.45-4.68-0.84c-0.76,0.29-1.39,0.75-1.89,1.32L771.65,339.46l-0.25,0.27
				c-1.14,1.27-1.52,3.12-0.84,4.81c0.23,0.54,0.52,1,0.89,1.39c0.18,0.2,0.38,0.38,0.58,0.53c19.73,18.24,35.83,40.94,46.56,67.48
				c10.75,26.63,14.89,54.27,13.3,81.16c-0.04,0.19-0.04,0.38-0.04,0.57c0,0.59,0.11,1.19,0.32,1.75c0.7,1.71,2.27,2.77,3.97,2.89
				l0.33,0.01l165.28,8.01h0.29c0.67,0.03,1.34-0.09,1.98-0.38c1.58-0.68,2.58-2.13,2.78-3.72c0.01-0.14,0.01-0.27,0.02-0.41v0.01
				c2.73-51.31-5.39-104.62-25.9-155.42c-20.51-50.82-51.22-94.44-88.81-129.51"/>
			<path class="st0" d="M602.79,70.92c-1.61,0.32-3.01,1.49-3.55,3.16c-0.24,0.77-0.27,1.56-0.12,2.3l24.18,163.71l0.07,0.36
				c0.3,1.68,1.53,3.12,3.27,3.62c0.56,0.16,1.11,0.22,1.64,0.17c0.27-0.02,0.54-0.06,0.78-0.13c26.5-4.26,54.32-2.92,81.82,5.02
				c27.58,7.98,51.89,21.79,72.06,39.64c0.13,0.14,0.27,0.27,0.42,0.37c0.46,0.36,0.99,0.65,1.58,0.83c1.77,0.5,3.58-0.07,4.73-1.35
				l0.21-0.25L898.2,163.29l0.18-0.23c0.44-0.52,0.76-1.11,0.93-1.79c0.44-1.67-0.09-3.36-1.22-4.49c-0.1-0.1-0.2-0.17-0.31-0.26
				l0.01,0.01c-38.68-33.83-85.64-60.34-138.25-75.57C706.9,65.73,653.61,62.97,602.81,70.91"/>
		</g>
		<path class="st0" d="M718.55,441.81c0-1.34-0.07-2.67-0.1-3.99c-1.53,5.88-4.93,11.68-7.4,16.27c-0.66-3.72-1.59-7.49-2.82-11.25
			c-3.65-11.27-9.39-20.99-16.23-28.46l-37.85,7.67l-0.14-0.43l35.34-16.15c1.04-9.92-0.05-20.94-3.64-31.99
			c-1.23-3.77-2.69-7.36-4.33-10.76c4.82,2.32,11.23,5.11,15.96,9.14c-16.47-24.6-41.4-43.06-70.63-51.26
			c5.46,3.23,10.2,8.59,14,12.56c-3.74-0.52-7.62-0.79-11.58-0.79c-11.72,0-22.65,2.41-31.82,6.53l-4.39,38.32h-0.45l-4.4-38.29
			c-9.19-4.14-20.11-6.56-31.88-6.56c-3.96,0-7.83,0.27-11.56,0.79c3.78-3.98,8.54-9.36,14.02-12.58
			c-29.28,8.19-54.25,26.68-70.75,51.35c4.74-4.09,11.2-6.88,16.05-9.21c-1.65,3.4-3.11,6.99-4.33,10.76
			c-3.59,11.04-4.68,22.04-3.66,31.95l35.4,16.16l-0.14,0.43l-37.87-7.68c-6.86,7.49-12.6,17.22-16.27,28.5
			c-1.23,3.76-2.17,7.52-2.82,11.25c-2.49-4.62-5.92-10.47-7.43-16.39c-0.05,1.37-0.1,2.73-0.1,4.11c0,29.12,9.92,55.91,26.51,77.24
			c-2.11-5.59-2.76-12.11-3.43-17.17c2.71,2.62,5.68,5.12,8.88,7.45c9.42,6.85,19.59,11.29,29.35,13.36l26.5-28.87l0.36,0.26
			l-19.2,33.99c5,8.77,12.44,17.19,21.98,24.13c3.2,2.31,6.49,4.37,9.82,6.15c-4.99,0.9-11.34,2.29-17.27,2.02
			c13.25,4.75,27.52,7.35,42.39,7.35c14.87,0,29.13-2.6,42.37-7.34c-5.92,0.26-12.25-1.12-17.22-2.02c3.33-1.78,6.63-3.83,9.83-6.15
			c9.55-6.93,16.99-15.36,21.98-24.13l-19.19-33.97l0.36-0.27l26.48,28.86c9.77-2.07,19.94-6.52,29.36-13.37
			c3.21-2.33,6.18-4.83,8.9-7.45c-0.69,5.04-1.34,11.53-3.43,17.09C708.66,497.66,718.55,470.9,718.55,441.81z M626.9,488.85h-68.41
			l-21.14-65.06l55.33-40.21l55.34,40.21L626.9,488.85z"/>
	</g>
	<g>
		<polygon class="st0" points="195.38,938.47 195.38,1122.12 300.8,1122.12 300.8,1080.4 243.09,1080.4 243.09,938.47 		"/>
		<g>
			<path class="st0" d="M388.58,1013.27c-21.23,0-34.83,15.82-34.83,35.24c0,20.39,12.89,37.17,33.41,37.17
				c19.8,0,36.26-14.62,36.26-35.96C423.41,1028.14,408.14,1013.27,388.58,1013.27 M308.68,1049.23c0-40.99,30.3-77.2,71.08-77.2
				c17.87,0,29.09,6,42.21,17.98v-15.09h43.9v147.19h-44.61v-14.39c0,0-15.98,18-43.88,18
				C336.58,1125.72,308.68,1096.45,308.68,1049.23"/>
		</g>
		<polygon class="st0" points="597.54,1122.12 492.11,1122.12 492.11,938.47 539.81,938.47 539.81,1080.4 597.54,1080.4 		"/>
		<path class="st0" d="M661.7,1122.12h-44.37V974.93h44.37V1122.12z M613.04,937.52c0-14.88,11.91-27.1,26.72-27.1
			c14.79,0,26.95,11.75,26.95,26.61c0,15.11-12.16,27.33-27.43,27.33C624.72,964.36,613.04,952.62,613.04,937.52"/>
		<path class="st0" d="M754.95,1010.14c-20.75,0-31.02,17.03-31.02,35.25c0,18.94,11.22,34.53,30.79,34.53
			c22.18,0,34.09-17.74,34.09-34.28C788.82,1025.98,777.84,1010.14,754.95,1010.14 M680.77,1045.64c0-39.81,25.29-73.61,63.94-73.61
			c18.6,0,31.23,6,43.87,19.41v-16.52h42.47v129.7c0,45.54-34.13,69.27-75.15,69.27c-36.02,0-67.5-18.21-72.25-51.31h49.85
			c6.17,10.08,12.37,11.99,23.36,11.99c15.5,0,29.8-7.18,29.8-23.23c0-3.84,0.24-7.21-0.23-11.03
			c-8.59,7.67-24.57,17.02-41.98,17.02C706.54,1117.32,680.77,1085.68,680.77,1045.64"/>
		<path class="st0" d="M930.04,1013.27c-21.24,0-34.83,15.82-34.83,35.24c0,20.39,12.87,37.17,33.39,37.17
			c19.79,0,36.25-14.62,36.25-35.96C964.86,1028.14,949.61,1013.27,930.04,1013.27 M850.13,1049.23c0-40.99,30.29-77.2,71.08-77.2
			c17.89,0,29.11,6,42.22,17.98v-15.09h43.89v147.19h-44.61v-14.39c0,0-15.98,18-43.89,18
			C878.04,1125.72,850.13,1096.45,850.13,1049.23"/>
	</g>
</g>
</svg>
